<svg width="26" height="26" viewBox="0 0 26 26" fill="none" xmlns="http://www.w3.org/2000/svg">
<path fill-rule="evenodd" clip-rule="evenodd" d="M13 3.575C7.79472 3.575 3.575 7.79472 3.575 13C3.575 18.2053 7.79472 22.425 13 22.425C18.2053 22.425 22.425 18.2053 22.425 13C22.425 7.79472 18.2053 3.575 13 3.575ZM1.625 13C1.625 6.71776 6.71776 1.625 13 1.625C19.2822 1.625 24.375 6.71776 24.375 13C24.375 19.2822 19.2822 24.375 13 24.375C6.71776 24.375 1.625 19.2822 1.625 13Z" fill="currentColor"/>
<path fill-rule="evenodd" clip-rule="evenodd" d="M9.1 13.325C9.63848 13.325 10.075 13.7615 10.075 14.3C10.075 15.9154 11.3846 17.225 13 17.225C14.6154 17.225 15.925 15.9154 15.925 14.3C15.925 13.7615 16.3615 13.325 16.9 13.325C17.4385 13.325 17.875 13.7615 17.875 14.3C17.875 16.9924 15.6924 19.175 13 19.175C10.3076 19.175 8.125 16.9924 8.125 14.3C8.125 13.7615 8.56152 13.325 9.1 13.325Z" fill="currentColor"/>
<path d="M11.05 10.4C11.05 11.118 10.468 11.7 9.75 11.7C9.03203 11.7 8.45 11.118 8.45 10.4C8.45 9.68203 9.03203 9.1 9.75 9.1C10.468 9.1 11.05 9.68203 11.05 10.4Z" fill="currentColor"/>
<path d="M17.55 10.4C17.55 11.118 16.968 11.7 16.25 11.7C15.532 11.7 14.95 11.118 14.95 10.4C14.95 9.68203 15.532 9.1 16.25 9.1C16.968 9.1 17.55 9.68203 17.55 10.4Z" fill="currentColor"/>
<path fill-rule="evenodd" clip-rule="evenodd" d="M13 10.075C13.5385 10.075 13.975 10.5115 13.975 11.05V13.325C13.975 13.8635 13.5385 14.3 13 14.3C12.4615 14.3 12.025 13.8635 12.025 13.325V11.05C12.025 10.5115 12.4615 10.075 13 10.075Z" fill="currentColor"/>
</svg>
